<?xml version="1.0" standalone="no"?>
<!DOCTYPE svg PUBLIC "-//W3C//DTD SVG 20010904//EN"
 "http://www.w3.org/TR/2001/REC-SVG-20010904/DTD/svg10.dtd">
<svg version="1.0" xmlns="http://www.w3.org/2000/svg"
 width="260.000000pt" height="260.000000pt" viewBox="0 0 260.000000 260.000000"
 preserveAspectRatio="xMidYMid meet">
<metadata>
Created by potrace 1.11, written by Peter Selinger 2001-2013
</metadata>
<g transform="translate(0.000000,260.000000) scale(0.100000,-0.100000)"
fill="#000000" stroke="none">
<path d="M1308 2583 c-24 -27 -44 -111 -43 -175 1 -32 -2 -58 -7 -58 -13 0
-78 144 -78 173 0 37 -16 42 -28 9 -22 -57 -25 -80 -24 -204 0 -85 -4 -130
-11 -136 -7 -5 -50 -21 -97 -36 -182 -58 -260 -96 -260 -127 0 -56 -79 -150
-187 -222 -35 -23 -63 -45 -63 -50 0 -17 74 4 140 39 70 37 149 106 185 164
39 62 208 118 275 90 34 -14 52 -38 100 -134 l35 -70 115 -1 c135 -1 166 -12
97 -32 -26 -7 -47 -18 -47 -22 0 -5 28 -12 63 -16 72 -9 127 -28 179 -64 55
-38 56 -52 2 -34 -57 19 -80 12 -63 -19 18 -33 19 -78 2 -120 -14 -36 -54 -69
-118 -97 -30 -13 -30 -13 -7 -22 13 -5 88 -25 168 -44 79 -19 179 -49 221 -66
78 -33 159 -97 151 -121 -4 -12 -19 -14 -136 -17 l-42 -1 83 -82 c94 -93 153
-196 163 -283 3 -27 7 -59 8 -69 6 -41 -26 -151 -62 -220 -49 -93 -170 -214
-280 -280 -76 -45 -225 -108 -282 -120 -140 -28 -183 -33 -272 -34 -170 -1
-320 33 -470 109 -128 63 -231 146 -363 294 -21 24 -20 20 7 -19 52 -76 152
-180 231 -239 200 -150 425 -225 673 -225 524 2 971 362 1084 873 40 180 28
412 -30 581 -26 75 -26 75 14 59 47 -20 52 -6 20 57 -55 111 -196 271 -288
330 l-31 19 43 -3 c23 -2 42 0 42 3 0 13 -142 101 -215 134 -38 18 -114 47
-169 66 -95 33 -99 35 -121 79 -13 25 -58 81 -100 125 -84 89 -132 156 -161
227 -10 27 -22 48 -25 48 -3 0 -13 -8 -21 -17z"/>
<path d="M872 1903 c-15 -7 -47 -30 -72 -53 l-45 -40 39 0 c30 0 37 3 32 15
-7 19 8 19 24 0 10 -11 16 -12 26 -4 11 9 11 14 -2 26 -12 13 -13 18 -3 24 17
10 49 -8 49 -28 0 -11 12 -4 40 21 28 25 49 36 72 36 17 0 29 3 26 6 -12 11
-160 9 -186 -3z"/>
<path d="M310 1666 c-14 -8 -40 -20 -58 -27 -31 -11 -33 -15 -28 -43 8 -37 76
-154 119 -203 62 -71 128 -86 438 -98 159 -6 230 -20 312 -62 41 -21 106 -82
124 -117 61 -117 -79 -331 -252 -386 -38 -13 -39 -13 -15 -22 28 -11 115 -12
175 -3 121 18 306 104 360 168 92 107 58 225 -98 349 l-49 38 32 0 c17 0 52
-9 77 -21 25 -11 47 -18 50 -16 5 6 -69 66 -117 95 -19 11 -71 33 -115 48 -76
26 -90 28 -260 28 -99 0 -247 -3 -330 -6 -129 -5 -157 -3 -197 12 -86 32 -158
105 -158 159 0 32 20 68 46 82 14 7 23 17 21 23 -5 17 -49 18 -77 2z"/>
</g>
</svg>
